<svg width="24" height="22" viewBox="0 0 24 22" fill="none" xmlns="http://www.w3.org/2000/svg">
<path fill-rule="evenodd" clip-rule="evenodd" d="M0.111755 2.51864C0.111755 2.06679 0.291252 1.63345 0.610759 1.31394C0.930265 0.994439 1.36361 0.814941 1.81546 0.814941H22.2599C22.7118 0.814941 23.1451 0.994439 23.4646 1.31394C23.7841 1.63345 23.9636 2.06679 23.9636 2.51864C23.9636 2.9705 23.7841 3.40384 23.4646 3.72334C23.1451 4.04285 22.7118 4.22235 22.2599 4.22235H1.81546C1.36361 4.22235 0.930265 4.04285 0.610759 3.72334C0.291252 3.40384 0.111755 2.9705 0.111755 2.51864ZM0.111755 11.0372C0.111755 10.5853 0.291252 10.152 0.610759 9.83246C0.930265 9.51296 1.36361 9.33346 1.81546 9.33346H22.2599C22.7118 9.33346 23.1451 9.51296 23.4646 9.83246C23.7841 10.152 23.9636 10.5853 23.9636 11.0372C23.9636 11.489 23.7841 11.9224 23.4646 12.2419C23.1451 12.5614 22.7118 12.7409 22.2599 12.7409H1.81546C1.36361 12.7409 0.930265 12.5614 0.610759 12.2419C0.291252 11.9224 0.111755 11.489 0.111755 11.0372ZM0.111755 19.5557C0.111755 19.1038 0.291252 18.6705 0.610759 18.351C0.930265 18.0315 1.36361 17.852 1.81546 17.852H22.2599C22.7118 17.852 23.1451 18.0315 23.4646 18.351C23.7841 18.6705 23.9636 19.1038 23.9636 19.5557C23.9636 20.0075 23.7841 20.4409 23.4646 20.7604C23.1451 21.0799 22.7118 21.2594 22.2599 21.2594H1.81546C1.36361 21.2594 0.930265 21.0799 0.610759 20.7604C0.291252 20.4409 0.111755 20.0075 0.111755 19.5557Z" fill="#FF2625"/>
</svg>
