<svg xmlns="http://www.w3.org/2000/svg" viewBox="0 0 56.53 62.81">
    <path d="M5.23,0H1.05A1,1,0,0,0,.31.31,1,1,0,0,0,0,1.05V8.38a1,1,0,0,0,1.05,1H5.23a1,1,0,0,0,1-1V7.33h1a1.07,1.07,0,0,0,.07.39l3.68,9.2a5.19,5.19,0,0,0,2.09,2.49l6.72,4.2v5.62l-4.1,26.66L11,58.77a1.09,1.09,0,0,0-.38.39,1.1,1.1,0,0,0-.13.51v2.1a1,1,0,0,0,1,1h9.42a1.07,1.07,0,0,0,.74-.3,1.09,1.09,0,0,0,.3-.74V59.83l6.29-19.74,6.28,19.74v1.94a1,1,0,0,0,1,1H45a1,1,0,0,0,1-1v-2.1a1,1,0,0,0-.13-.51,1.09,1.09,0,0,0-.38-.39l-4.81-2.88-4.1-26.66V23.61l6.72-4.2a5.19,5.19,0,0,0,2.09-2.49l3.68-9.2a1.07,1.07,0,0,0,.07-.39h1V8.38a1,1,0,0,0,1,1h4.18a1,1,0,0,0,1.05-1V1.05a1,1,0,0,0-.31-.74A1,1,0,0,0,55.48,0H51.3a1,1,0,0,0-.74.31,1,1,0,0,0-.31.74v1H40.83v-1a1,1,0,0,0-.31-.74A1,1,0,0,0,39.78,0H35.59a1,1,0,0,0-1,1.05V8.38a1,1,0,0,0,1,1h4.19a1,1,0,0,0,1-1V7.33h1.05v.76L39.11,12.7l-6.66,1.66V9.74A3.48,3.48,0,0,0,32,8a3.43,3.43,0,0,0-3.13-1.67,3.4,3.4,0,0,0-1.75.57L24.54,8.55a1.12,1.12,0,0,0-.34.38,1,1,0,0,0-.12.49v4.94L17.42,12.7,14.66,8.09V7.33h1V8.38a1.05,1.05,0,0,0,.31.74,1.07,1.07,0,0,0,.74.3h4.19a1.07,1.07,0,0,0,.74-.3,1.09,1.09,0,0,0,.3-.74V1.05a1.05,1.05,0,0,0-.3-.74A1,1,0,0,0,20.94,0H16.75A1,1,0,0,0,16,.31a1,1,0,0,0-.31.74v1H6.28v-1A1,1,0,0,0,6,.31,1,1,0,0,0,5.23,0Zm-1,7.33H2.09V2.09h2.1ZM52.34,2.09h2.1V7.33h-2.1ZM38.73,7.33H36.64V2.09h2.09ZM17.8,2.09h2.09V7.33H17.8ZM12.56,60.72v-.46l4.13-2.47,3.2,2.41v.52ZM20.39,58l-2.51-1.88L20.05,42,25,43.62Zm7.88-22.36a1,1,0,0,0-.62.21,1,1,0,0,0-.38.52l-1.69,5.3-5.21-1.74,1.47-9.52H34.7l1.46,9.52L31,41.62l-1.69-5.3a1.08,1.08,0,0,0-1-.73Zm3.31,8L36.48,42l2.17,14.09L36.14,58ZM44,60.26v.46H36.64V60.2l3.21-2.41ZM35,22.14a1.09,1.09,0,0,0-.36.38,1,1,0,0,0-.13.51v5.24H22V23a1,1,0,0,0-.13-.51,1.09,1.09,0,0,0-.36-.38l-3.61-2.25,1.79-4.47,4.91,1.23a4.2,4.2,0,0,0,7.37,0l4.91-1.23,1.79,4.47Zm-8.87-7.48v-2.1h4.19v2.1a2.08,2.08,0,0,1-2.09,2.09,2.1,2.1,0,0,1-2.1-2.09ZM50.25,5.23H48.71l-.26-1h1.8Zm-9.42,0v-1h1.05v1ZM40,14.63a1.06,1.06,0,0,0,.64-.48l3.14-5.24A1,1,0,0,0,44,8.38V4.19h2.32l.77,3.06-3.55,8.89a3.11,3.11,0,0,1-1.26,1.49l-1.79,1.13-1.55-3.85Zm-11.8-6a1.37,1.37,0,0,1,.69-.22,1.26,1.26,0,0,1,.71.16,1.34,1.34,0,0,1,.53.5,1.41,1.41,0,0,1,.19.7v.73H26.17V10ZM15.7,5.23h-1v-1h1Zm-5.46-1h2.32V8.38a1,1,0,0,0,.15.53l3.14,5.24a1.09,1.09,0,0,0,.65.48l1.12.28-1.54,3.85-1.8-1.13A3,3,0,0,1,13,16.14L9.47,7.25Zm-2.16,0-.26,1H6.28v-1Z"/>
</svg>
