<svg xmlns="http://www.w3.org/2000/svg" xmlns:xlink="http://www.w3.org/1999/xlink" viewBox="0 0 67.5 63">
    <path d="M67,58.66l-5.14-3.09L60,38.78a6.71,6.71,0,0,0-5.25-5.88L39.38,29.47V25.22l.72-.73a5.18,5.18,0,0,0,0-7.35l-2.72-2.72a5.68,5.68,0,0,0,2-4.29V5.63A5.63,5.63,0,0,0,32.16.23a5.56,5.56,0,0,0-2.83,1.93l-1.25-.63A3.86,3.86,0,0,0,22.5,5V7.6a10.24,10.24,0,0,1-.79,4A10.15,10.15,0,0,1,19.45,15a1.16,1.16,0,0,0-.3.58,1.11,1.11,0,0,0,.06.65,1.16,1.16,0,0,0,.42.51,1.13,1.13,0,0,0,.62.19h3.38a6.82,6.82,0,0,0,5.75-3.22,5.62,5.62,0,0,0,1,1,5.73,5.73,0,0,0-1.1,1.1l-3.73,5a9.57,9.57,0,0,0,0,11.47l.34.46v4.31L21.69,49.5H1.13A1.13,1.13,0,0,0,0,50.63V61.88A1.13,1.13,0,0,0,1.13,63H3.38a1.08,1.08,0,0,0,.55-.15,1.05,1.05,0,0,0,.41-.4l3-5,17,1.79a6.72,6.72,0,0,0,6.56-3.36l6.86-12h13L54,59.74v2.14A1.13,1.13,0,0,0,55.13,63H66.38a1.13,1.13,0,0,0,1.12-1.12V59.63a1.09,1.09,0,0,0-.15-.56A1.05,1.05,0,0,0,67,58.66ZM39.38,20.81a3,3,0,0,1-.87,2.09L37.45,24a1.14,1.14,0,0,0-.32.8v4.5H33.88L32.81,27.1l4.6-6.43h0a4.58,4.58,0,0,0,.82-2.22l.28.28a2.9,2.9,0,0,1,.64.95A3,3,0,0,1,39.38,20.81ZM33.75,2.25a3.4,3.4,0,0,1,2,.62A3.33,3.33,0,0,1,36.93,4.5H33.75a1.15,1.15,0,0,0-.8.33L31,6.75h-.65V5.63a3.37,3.37,0,0,1,1-2.39A3.42,3.42,0,0,1,33.75,2.25ZM23.63,14.63h-1a12.57,12.57,0,0,0,2.12-7V5A1.65,1.65,0,0,1,25,4.2a1.76,1.76,0,0,1,.56-.59,1.61,1.61,0,0,1,.77-.23,1.52,1.52,0,0,1,.79.16l1.25.63a5.47,5.47,0,0,0-.19,1.46v4.5a4.51,4.51,0,0,1-4.5,4.5ZM30.38,9H31.5a1.15,1.15,0,0,0,.8-.33l1.92-1.92h2.91v3.38a3.38,3.38,0,1,1-6.75,0Zm-3,13.05,3.73-5a3.33,3.33,0,0,1,1.17-1,3.29,3.29,0,0,1,1.48-.35,2.26,2.26,0,0,1,2,1.24A2.29,2.29,0,0,1,36,18.2a2.21,2.21,0,0,1-.42,1.16l-5,7a1.12,1.12,0,0,0-.2.56,1.08,1.08,0,0,0,.11.59l3.38,6.75a1.14,1.14,0,0,0,.65.57l3.12,1,.37.36-.46.91H32.06l-4.72-6.3a7.33,7.33,0,0,1,0-8.78ZM30.6,38.92a1.1,1.1,0,0,0,.4.34,1.23,1.23,0,0,0,.5.12h6.75a1.12,1.12,0,0,0,.59-.17,1.17,1.17,0,0,0,.42-.46l1.12-2.25a1.15,1.15,0,0,0,.11-.68,1.16,1.16,0,0,0-.32-.62l-1.12-1.12a1.19,1.19,0,0,0-.44-.27l-2.94-1L35,31.5h3.12l8,1.78v8.35H32.63a4.58,4.58,0,0,1-3.19-1.32,4.52,4.52,0,0,1-1.31-3.18v-1.5ZM2.74,60.75H2.25v-9H4.7L5.56,56Zm26.23-6a4.49,4.49,0,0,1-1.86,1.78,4.56,4.56,0,0,1-2.52.47L7.69,55.22,7,51.75H22.5a1.1,1.1,0,0,0,.66-.21,1.21,1.21,0,0,0,.41-.56l1-3.11,6.46,3.23Zm3.21-5.61-6.86-3.42L27,40.79a6.62,6.62,0,0,0,2.44,2.26,6.87,6.87,0,0,0,3.23.83h2.56Zm20.67-6.61a1.1,1.1,0,0,0-.39-.65,1.14,1.14,0,0,0-.71-.25H48.38V33.78l5.93,1.32A4.46,4.46,0,0,1,57.8,39l1.76,16.63-3.64,2.19Zm12.4,18.22h-9v-.49l4.5-2.7,4.5,2.7Z"/>
</svg>