<svg xmlns="http://www.w3.org/2000/svg" viewBox="0 0 44.71 63">
    <path d="M27.15,44.86A3.88,3.88,0,0,0,28.52,46a4,4,0,0,0,1.73.4,3.52,3.52,0,0,0,1.25-.2,3.86,3.86,0,0,0,1.25.21A4.11,4.11,0,0,0,34.48,46a3.88,3.88,0,0,0,1.37-1.14l3.81-5a10.67,10.67,0,0,0,2.13-6.36A6.45,6.45,0,0,0,41,30.31,6.35,6.35,0,0,0,38.68,28,6.49,6.49,0,0,0,35.55,27a6.56,6.56,0,0,0-3.19.73v-1.1h.78a4.3,4.3,0,0,0,4.28-4.28.86.86,0,0,0-.25-.61.89.89,0,0,0-.61-.26H34.92A4.42,4.42,0,0,0,33,22a4.36,4.36,0,0,0-1.52,1.31,4.45,4.45,0,0,0-3.56-1.78.86.86,0,1,0,0,1.72A2.77,2.77,0,0,1,30.64,26v1.77a6.43,6.43,0,0,0-6.32.2,6.46,6.46,0,0,0-3.1,5.51,10.6,10.6,0,0,0,2.13,6.36Zm7.77-21.62h.62a2.52,2.52,0,0,1-.93,1.23,2.58,2.58,0,0,1-1.47.46h-.63a2.58,2.58,0,0,1,.94-1.22,2.5,2.5,0,0,1,1.47-.47Zm-7.26,5.51a4.69,4.69,0,0,1,3.25,1.3.87.87,0,0,0,1.18,0,4.72,4.72,0,0,1,8,3.42,8.88,8.88,0,0,1-1.79,5.32l-3.8,5a2.17,2.17,0,0,1-1.2.78,2.24,2.24,0,0,1-1.42-.11.86.86,0,0,0-.36-.08.85.85,0,0,0-.35.08,2.26,2.26,0,0,1-1.43.11,2.18,2.18,0,0,1-1.19-.78l-3.81-5a8.89,8.89,0,0,1-1.78-5.32,4.71,4.71,0,0,1,4.72-4.72Z"
          transform="translate(-9.15)"/>
    <path d="M50.53,4.92h-12L37.25.61A.86.86,0,0,0,36.43,0H26.57a.87.87,0,0,0-.51.17.81.81,0,0,0-.31.44L24.43,4.93h-12A3.33,3.33,0,0,0,9.15,8.24V59.68A3.31,3.31,0,0,0,12.47,63H50.53a3.31,3.31,0,0,0,3.32-3.32V8.24a3.33,3.33,0,0,0-3.32-3.32Zm-3.32,6.65V56.36H15.79V11.57ZM25.06,6.65a.87.87,0,0,0,.52-.17A.81.81,0,0,0,25.89,6l1.32-4.32h8.58L37.11,6a.81.81,0,0,0,.31.44.87.87,0,0,0,.51.17H42V9.84H21V6.64Zm27.07,53a1.61,1.61,0,0,1-.47,1.13,1.59,1.59,0,0,1-1.13.47H12.47a1.59,1.59,0,0,1-1.13-.47,1.61,1.61,0,0,1-.47-1.13V8.24a1.61,1.61,0,0,1,.47-1.13,1.63,1.63,0,0,1,1.13-.47h6.81v3.2H14.93a.83.83,0,0,0-.61.26.86.86,0,0,0-.25.61V57.22a.88.88,0,0,0,.25.61.86.86,0,0,0,.61.25H48.07a.86.86,0,0,0,.61-.25.88.88,0,0,0,.25-.61V10.71a.86.86,0,0,0-.25-.61.83.83,0,0,0-.61-.26H43.72V6.64h6.81a1.63,1.63,0,0,1,1.13.47,1.61,1.61,0,0,1,.47,1.13Z"
          transform="translate(-9.15)"/>
    <path d="M30.18,6.64h2.64a.85.85,0,0,0,.86-.86.88.88,0,0,0-.25-.61.86.86,0,0,0-.61-.25H30.18a.86.86,0,0,0-.61.25.88.88,0,0,0-.25.61.85.85,0,0,0,.86.86Z"/>
</svg>
